<svg id="Capa_1" data-name="Capa 1" xmlns="http://www.w3.org/2000/svg" viewBox="0 0 202.45 202.45"><defs><style>.cls-1{fill:#005b63;}.cls-2{fill:#fff;}</style></defs><circle class="cls-1" cx="101.23" cy="101.23" r="101.23"/><path class="cls-2" d="M165.34,86.94c.7.2,1.41.37,2.11.59a12.38,12.38,0,0,1,8.68,11.27c0,.47,0,.94,0,1.4q0,46.59,0,93.18c0,5.57-2.41,9.69-7.5,12a13.79,13.79,0,0,1-5.43,1.09c-13.19.1-26.39.08-39.58.07-7.56,0-13-5.37-13-12.92,0-8.25,0-16.5,0-24.75q0-34.4,0-68.78a12.54,12.54,0,0,1,8.83-12.49c.73-.24,1.48-.41,2.22-.62Zm-48.1,17.79v83H170.3v-83Zm25.89,98.06a5.59,5.59,0,1,0-5.58-5.56A5.62,5.62,0,0,0,143.13,202.79Zm.25-104.64c1.91,0,3.81,0,5.71,0a1.93,1.93,0,0,0,2.15-1.82c0-1.12-.83-1.9-2.17-1.91q-5.53,0-11.07,0c-1.37,0-2.19.73-2.18,1.87s.82,1.85,2.2,1.86Zm-11.4,0a1.85,1.85,0,0,0,1.82-1.88,1.87,1.87,0,0,0-1.91-1.8,1.85,1.85,0,0,0-1.81,1.89A1.83,1.83,0,0,0,132,98.17Z" transform="translate(-44 -44.55)"/></svg>