<svg id="Capa_1" data-name="Capa 1" xmlns="http://www.w3.org/2000/svg" viewBox="0 0 217 217"><defs><style>.cls-1{fill:#005b63;}.cls-2{fill:#fff;}</style></defs><circle class="cls-1" cx="108.5" cy="108.5" r="108.5"/><path class="cls-2" d="M142.62,206.05c0-.33.06-.66.06-1V155.38H126.31V135.2h16.37v-1.39c0-5.9-.1-11.81.2-17.7.37-7,2.76-13.27,8.3-18a23.08,23.08,0,0,1,15.11-5.4c5.3,0,10.61.39,15.91.62a3.89,3.89,0,0,1,.68.16v18h-1.3c-3.88.06-7.76,0-11.61.23-4.15.31-6.58,2.5-6.83,6.65-.33,5.54-.08,11.12-.08,16.8H181.2c-.84,6.78-1.67,13.42-2.51,20.15H163c0,.44-.08.8-.08,1.15v48.6c0,.32.06.65.09,1Z" transform="translate(-46 -39.55)"/></svg>