<svg id="Capa_1" data-name="Capa 1" xmlns="http://www.w3.org/2000/svg" viewBox="0 0 215.78 215.78"><defs><style>.cls-1{fill:#005b63;}.cls-2{fill:#fff;}</style></defs><circle class="cls-1" cx="107.89" cy="107.89" r="107.89"/><path class="cls-2" d="M219.66,101c-.35.31-.7.6-1,.93q-45.87,45.83-91.73,91.66c-.43.43-.79.92-1.54,1.82a11.07,11.07,0,0,0-1-1.63Q101,170.42,77.61,147c-.35-.35-.76-.65-1.15-1v-.28c4-4,8-8,12-11.95a17.86,17.86,0,0,0,1.14-1.43l35.82,35.83q40.41-40.52,80.56-80.8c3.11,3,6,5.89,8.88,8.72,1.59,1.55,3.22,3.07,4.84,4.6Z" transform="translate(-39.67 -33.22)"/></svg>