<svg id="Capa_1" data-name="Capa 1" xmlns="http://www.w3.org/2000/svg" viewBox="0 0 256.46 263"><defs><style>.cls-1{fill:#0086b7;}.cls-2{fill:none;}.cls-3{fill:#fe0;}.cls-4{fill:#ff6132;}.cls-5{fill:#00a487;}.cls-6{fill:#48bd8d;}.cls-7{fill:#a8eb9b;}.cls-8{fill:#ffff97;}.cls-9{fill:#00ace4;}</style></defs><path class="cls-1" d="M273.33,146h.23A128.24,128.24,0,0,1,54.64,236.44a127.38,127.38,0,0,1-37.55-90.21h.46A127.78,127.78,0,0,0,273.1,146Z" transform="translate(-17.09 -11)"/><path class="cls-1" d="M273.1,145.77V146H184.82a1.62,1.62,0,0,0,0-.22,1.69,1.69,0,0,0,0-.23H273.1Z" transform="translate(-17.09 -11)"/><path class="cls-1" d="M184.82,146H273.1a127.78,127.78,0,0,1-255.55.24h88.26v-.69h.46a39.05,39.05,0,0,1,78.1,0h.45a1.69,1.69,0,0,1,0,.23A1.62,1.62,0,0,1,184.82,146Z" transform="translate(-17.09 -11)"/><path class="cls-1" d="M184.82,145.54h-.45a39.05,39.05,0,0,0-78.1,0h-.46a39.51,39.51,0,0,1,79,0Z" transform="translate(-17.09 -11)"/><path class="cls-1" d="M105.81,146v.22H17.55V146h88.26Z" transform="translate(-17.09 -11)"/><path class="cls-2" d="M182.48,145.28c0-.08,0-.15,0-.23s0-.15,0-.23c0,.08,0,.15,0,.23S182.48,145.2,182.48,145.28Z" transform="translate(-17.09 -11)"/><path class="cls-2" d="M103.46,145.28h0a.37.37,0,0,0,0-.11Z" transform="translate(-17.09 -11)"/><path d="M103.46,145.08v.09a.28.28,0,0,0,0-.09Z" transform="translate(-17.09 -11)"/><path d="M168.93,145.05v.23h.46v-.46h-.46Z" transform="translate(-17.09 -11)"/><path class="cls-3" d="M145.32,119.08c-14.08,0-25.55,11.59-25.72,25.89l51.44-.31A26,26,0,0,0,145.32,119.08Z" transform="translate(-17.09 -11)"/><path class="cls-4" d="M145.32,170.55a25.77,25.77,0,0,0,25.73-25.43l-51.44.3A25.75,25.75,0,0,0,145.32,170.55Z" transform="translate(-17.09 -11)"/><path class="cls-5" d="M134.42,96.56a44.59,44.59,0,0,1,6.47-.47c.6,0,1.21,0,1.81,0a89.87,89.87,0,0,0,2.23-29.25c-.72-6.85-2.36-12.55-4.84-21.11-2-7.08-3.24-9.57-4.39-15.52A96.23,96.23,0,0,1,134.09,11a122.16,122.16,0,0,1-2.49,19.25c-1.31,6-2.38,8.53-4.4,15.52-.66,2.28-1.25,4.35-1.79,6.3a93.17,93.17,0,0,1,6.14,15.25A89.81,89.81,0,0,1,134.42,96.56Z" transform="translate(-17.09 -11)"/><path class="cls-5" d="M122,76.6a74.58,74.58,0,0,1,.37-9.72,86.51,86.51,0,0,1,3-14.81c-.71-1.47-1.47-3-2.29-4.7-3.24-6.61-4.86-8.86-7-14.52a97.92,97.92,0,0,1-4.93-18.68,118.69,118.69,0,0,1,.89,19.39c-.24,6.14-.85,8.81-1.63,16-.21,2-.41,3.82-.58,5.56A96.55,96.55,0,0,1,119.19,70,71.08,71.08,0,0,1,122,76.6Z" transform="translate(-17.09 -11)"/><path class="cls-5" d="M122,76.6a93.62,93.62,0,0,1,5,21.68,44.83,44.83,0,0,1,7.45-1.72,89.81,89.81,0,0,0-2.87-29.24,93.17,93.17,0,0,0-6.14-15.25,86.51,86.51,0,0,0-3,14.81A74.58,74.58,0,0,0,122,76.6Z" transform="translate(-17.09 -11)"/><path class="cls-6" d="M107.11,74.83q1.81,2.51,3.36,5.09a75,75,0,0,1-1.14-8.68,90.92,90.92,0,0,1,.51-16.07c-.66-.92-1.36-1.87-2.09-2.88-4.22-5.79-6.14-7.66-9.18-12.72a94,94,0,0,1-7.87-17,117.1,117.1,0,0,1,4.12,18.42c.81,5.91.67,8.58,1.15,15.64.16,2.3.3,4.39.46,6.35A90.82,90.82,0,0,1,107.11,74.83Z" transform="translate(-17.09 -11)"/><path class="cls-6" d="M109.33,71.24a75,75,0,0,0,1.14,8.68,92.67,92.67,0,0,1,9.22,21.45,44.54,44.54,0,0,1,5.59-2.51A98.71,98.71,0,0,1,122,76.6,71.08,71.08,0,0,0,119.19,70a96.55,96.55,0,0,0-9.35-14.8A90.92,90.92,0,0,0,109.33,71.24Z" transform="translate(-17.09 -11)"/><path class="cls-6" d="M122,76.6a98.71,98.71,0,0,0,3.28,22.26l1.69-.58A93.62,93.62,0,0,0,122,76.6Z" transform="translate(-17.09 -11)"/><path class="cls-6" d="M102.38,88.7a75,75,0,0,1-3.81-11.22,85.41,85.41,0,0,1-2.14-14.55c-1.14-1.11-2.35-2.27-3.66-3.53-5.16-5-7.38-6.48-11.25-10.93A94.67,94.67,0,0,1,70.81,33a117.29,117.29,0,0,1,7.26,17.42c1.82,5.69,2.15,8.34,3.85,15.21.55,2.24,1,4.27,1.55,6.18a89,89,0,0,1,12.58,9.86A72,72,0,0,1,102.38,88.7Z" transform="translate(-17.09 -11)"/><path class="cls-6" d="M102.38,88.7a94.81,94.81,0,0,1,10.68,17,44.6,44.6,0,0,1,4.77-3.26,98.2,98.2,0,0,1-7.36-22.49q-1.55-2.58-3.36-5.09a90.82,90.82,0,0,0-10.68-11.9,85.41,85.41,0,0,0,2.14,14.55A75,75,0,0,0,102.38,88.7Z" transform="translate(-17.09 -11)"/><path class="cls-6" d="M110.47,79.92a98.2,98.2,0,0,0,7.36,22.49c.61-.36,1.23-.71,1.86-1A92.67,92.67,0,0,0,110.47,79.92Z" transform="translate(-17.09 -11)"/><path class="cls-7" d="M93.81,96.18a74.42,74.42,0,0,1-5.7-10.38,85.78,85.78,0,0,1-4.64-14L79.26,69c-6-4-8.4-5.1-13-8.81A94.43,94.43,0,0,1,53.05,46.86,117.5,117.5,0,0,1,63.23,62.75C66,68,66.79,70.59,69.65,77.06c.94,2.11,1.79,4,2.61,5.82a88.85,88.85,0,0,1,14.1,7.52A72.93,72.93,0,0,1,93.81,96.18Z" transform="translate(-17.09 -11)"/><path class="cls-7" d="M93.81,96.18A95.42,95.42,0,0,1,107.27,111a44.84,44.84,0,0,1,5-4.74,98.1,98.1,0,0,1-9.89-17.6,72,72,0,0,0-6.33-7,89,89,0,0,0-12.58-9.86,85.78,85.78,0,0,0,4.64,14A74.42,74.42,0,0,0,93.81,96.18Z" transform="translate(-17.09 -11)"/><path class="cls-7" d="M102.38,88.7a98.1,98.1,0,0,0,9.89,17.6c.26-.22.52-.43.79-.63A94.81,94.81,0,0,0,102.38,88.7Z" transform="translate(-17.09 -11)"/><path class="cls-7" d="M86.66,105.05a74.35,74.35,0,0,1-7.41-9.24,85.42,85.42,0,0,1-7-12.93c-1.46-.66-3-1.34-4.65-2.07-6.55-2.91-9.15-3.57-14.3-6.43A94.63,94.63,0,0,1,38,63.55,116.94,116.94,0,0,1,50.74,77.43c3.66,4.73,4.87,7.11,8.82,13,1.28,1.91,2.45,3.65,3.57,5.27a90.82,90.82,0,0,1,15.19,5A73.81,73.81,0,0,1,86.66,105.05Z" transform="translate(-17.09 -11)"/><path class="cls-7" d="M86.66,105.05a94.55,94.55,0,0,1,15.83,12.29,45.38,45.38,0,0,1,4.11-5.54A97.58,97.58,0,0,1,93.81,96.18a72.93,72.93,0,0,0-7.45-5.78,88.85,88.85,0,0,0-14.1-7.52,85.42,85.42,0,0,0,7,12.93A74.35,74.35,0,0,0,86.66,105.05Z" transform="translate(-17.09 -11)"/><path class="cls-7" d="M93.81,96.18A97.58,97.58,0,0,0,106.6,111.8c.22-.25.44-.51.67-.76A95.42,95.42,0,0,0,93.81,96.18Z" transform="translate(-17.09 -11)"/><path class="cls-8" d="M81.17,115a73.81,73.81,0,0,1-8.91-7.82,84,84,0,0,1-9.13-11.52L58.2,94.45c-7-1.72-9.64-1.92-15.21-3.84a94.1,94.1,0,0,1-17-8A117.33,117.33,0,0,1,41,94.06c4.41,4,6,6.15,10.93,11.25,1.6,1.66,3,3.17,4.43,4.57a89.39,89.39,0,0,1,15.83,2.25A72.52,72.52,0,0,1,81.17,115Z" transform="translate(-17.09 -11)"/><path class="cls-8" d="M81.17,115a94.88,94.88,0,0,1,17.71,9.34A45.39,45.39,0,0,1,102,118.2a98.75,98.75,0,0,1-15.3-13.15,73.81,73.81,0,0,0-8.34-4.41,90.82,90.82,0,0,0-15.19-5,84,84,0,0,0,9.13,11.52A73.81,73.81,0,0,0,81.17,115Z" transform="translate(-17.09 -11)"/><path class="cls-8" d="M86.66,105.05A98.75,98.75,0,0,0,102,118.2c.18-.29.35-.58.53-.86A94.55,94.55,0,0,0,86.66,105.05Z" transform="translate(-17.09 -11)"/><path class="cls-8" d="M68.14,124.5a72.71,72.71,0,0,1,9.34,1.29,74.15,74.15,0,0,1-10.12-6.15,85.41,85.41,0,0,1-11-9.76c-1.58-.12-3.26-.23-5.07-.35-7.14-.49-9.82-.22-15.64-1.15a94.09,94.09,0,0,1-18.12-4.93,117.43,117.43,0,0,1,16.76,8.68c5,3.19,7,5,12.72,9.17,1.86,1.36,3.55,2.6,5.16,3.74A90.06,90.06,0,0,1,68.14,124.5Z" transform="translate(-17.09 -11)"/><path class="cls-8" d="M67.36,119.64a74.15,74.15,0,0,0,10.12,6.15,95,95,0,0,1,19.07,6.13,44.55,44.55,0,0,1,2-6.61A98.13,98.13,0,0,1,81.17,115a72.52,72.52,0,0,0-9-2.89,89.39,89.39,0,0,0-15.83-2.25A85.41,85.41,0,0,0,67.36,119.64Z" transform="translate(-17.09 -11)"/><path class="cls-8" d="M81.17,115a98.13,98.13,0,0,0,17.34,10.29c.12-.32.24-.63.37-1A94.88,94.88,0,0,0,81.17,115Z" transform="translate(-17.09 -11)"/><path class="cls-4" d="M75.73,137a95,95,0,0,1,19.84,2.72,45.44,45.44,0,0,1,.78-6.85,98.41,98.41,0,0,1-18.87-7.12,72.71,72.71,0,0,0-9.34-1.29,90.06,90.06,0,0,0-16,.54,85,85,0,0,0,12.52,7.7A75.67,75.67,0,0,0,75.73,137Z" transform="translate(-17.09 -11)"/><path class="cls-4" d="M77.48,125.79a98.41,98.41,0,0,0,18.87,7.12c.06-.33.13-.66.2-1A95,95,0,0,0,77.48,125.79Z" transform="translate(-17.09 -11)"/><path class="cls-4" d="M75.73,137a98,98,0,0,0,19.82,3.74c0-.34,0-.68,0-1A95,95,0,0,0,75.73,137Z" transform="translate(-17.09 -11)"/><path class="cls-9" d="M221.06,168.49s-8.91-.36-12.44-1.9-11.68,1.64-14.23,8.38a21.54,21.54,0,0,0,2.54.19c.75,0,1.5,0,2.25-.06s1.49-.14,2.24-.25a49.51,49.51,0,0,0,8.75-2.24c2.85-1,5.65-2.14,8.42-3.36-2.74,1.28-5.51,2.5-8.35,3.55a49.72,49.72,0,0,1-8.76,2.46c-.75.13-1.5.23-2.26.3s-1.53.11-2.29.12a22.72,22.72,0,0,1-2.73-.16l0,0S205.63,187,221.06,168.49Z" transform="translate(-17.09 -11)"/><path class="cls-9" d="M240.68,181.14s-8.9.51-12.56-.68-11.47,2.76-13.36,9.71a19.55,19.55,0,0,0,2.54,0c.75-.06,1.5-.15,2.24-.28s1.47-.28,2.2-.46a49.93,49.93,0,0,0,8.5-3.08c2.74-1.26,5.42-2.68,8-4.16-2.6,1.54-5.24,3-8,4.34a49.73,49.73,0,0,1-8.47,3.3c-.74.2-1.48.37-2.23.52s-1.51.25-2.27.33a22.5,22.5,0,0,1-2.73.11v.06S227.11,201.09,240.68,181.14Z" transform="translate(-17.09 -11)"/><path class="cls-9" d="M250,161s-6.09,1.16-8.46.77-8,2.81-10,7.34a15,15,0,0,0,1.72-.28c.52-.1,1-.23,1.54-.38s1-.32,1.54-.5a46.67,46.67,0,0,0,6.06-2.74c2-1,3.93-2.18,5.85-3.36-1.91,1.21-3.84,2.38-5.81,3.47a48.46,48.46,0,0,1-6.06,2.87c-.52.19-1,.37-1.56.53s-1.05.31-1.57.43-1.25.25-1.86.33l0,0S238.88,174.74,250,161Z" transform="translate(-17.09 -11)"/><path class="cls-9" d="M231.9,158.85s-4.26-.72-5.73-1.57-5.9-.07-8.13,2.54a9.45,9.45,0,0,0,1.2.25c.36.05.72.09,1.09.11s.75,0,1.12,0a29.53,29.53,0,0,0,4.57-.37c1.53-.22,3-.52,4.57-.85-1.51.36-3,.68-4.57.94a32.58,32.58,0,0,1-4.6.46l-1.14,0c-.37,0-.75-.06-1.12-.1s-.87-.14-1.3-.24v0S221.68,165.51,231.9,158.85Z" transform="translate(-17.09 -11)"/><path class="cls-9" d="M246.68,153.66a15.26,15.26,0,0,1-3.49.24c-.95-.18-3.29,1.1-4.05,3,.24,0,.47-.05.71-.09s.42-.09.63-.15l.64-.19a18.56,18.56,0,0,0,2.47-1.09c.81-.42,1.6-.88,2.39-1.35-.78.49-1.57,1-2.37,1.4a18.38,18.38,0,0,1-2.48,1.13c-.21.08-.42.15-.64.21s-.43.12-.64.17-.51.09-.77.12h0S242.23,159.31,246.68,153.66Z" transform="translate(-17.09 -11)"/><path class="cls-9" d="M256.5,153.38a11.63,11.63,0,0,1-2.85-.06c-.82-.23-2.57.72-2.92,2.31a5.44,5.44,0,0,0,.57,0l.5-.08.5-.13a11,11,0,0,0,1.89-.76c.61-.31,1.2-.65,1.78-1-.57.37-1.16.73-1.76,1a10.77,10.77,0,0,1-1.88.81,4.67,4.67,0,0,1-.5.14l-.51.09a4.32,4.32,0,0,1-.62,0h0S253.64,158,256.5,153.38Z" transform="translate(-17.09 -11)"/></svg>